<?xml version="1.0" standalone="no"?>
<!DOCTYPE svg PUBLIC "-//W3C//DTD SVG 20010904//EN"
 "http://www.w3.org/TR/2001/REC-SVG-20010904/DTD/svg10.dtd">
<svg version="1.0" xmlns="http://www.w3.org/2000/svg"
 width="512.000000pt" height="512.000000pt" viewBox="0 0 512.000000 512.000000"
 preserveAspectRatio="xMidYMid meet">

<g transform="translate(0.000000,512.000000) scale(0.100000,-0.100000)"
fill="#000000" stroke="none">
<path d="M0 2560 l0 -2560 2560 0 2560 0 0 2560 0 2560 -2560 0 -2560 0 0
-2560z m2213 216 c22 -11 51 -37 65 -59 24 -36 27 -51 30 -147 3 -92 1 -113
-16 -146 -42 -82 -92 -104 -234 -104 -123 0 -174 20 -216 83 -25 38 -27 47
-27 157 0 108 2 119 25 153 14 22 46 48 75 63 46 23 59 25 155 22 78 -2 115
-8 143 -22z m-1593 7 c0 -5 -65 -109 -143 -233 l-143 -225 -43 -3 c-38 -3 -43
-1 -37 14 4 10 69 116 144 236 l137 218 43 0 c23 0 42 -3 42 -7z m328 -15 c-8
-13 -74 -119 -148 -235 l-133 -213 -43 0 c-24 0 -44 2 -44 4 0 3 66 109 146
235 l146 231 45 0 c45 0 45 0 31 -22z m392 -73 l0 -95 150 0 150 0 0 95 0 95
40 0 40 0 0 -235 0 -235 -40 0 -40 0 0 100 0 100 -150 0 -150 0 0 -100 0 -100
-40 0 -40 0 0 235 0 235 40 0 40 0 0 -95z m1470 55 l0 -40 -90 0 -90 0 -2
-192 -3 -193 -40 0 -40 0 -3 193 -2 192 -95 0 -95 0 0 40 0 40 230 0 230 0 0
-40z m520 0 l0 -40 -180 0 c-167 0 -180 -1 -190 -19 -15 -28 -13 -254 2 -269
8 -8 56 -12 150 -12 l138 0 0 55 0 55 -110 0 -110 0 0 40 0 40 145 0 c173 0
165 7 165 -139 0 -143 3 -141 -192 -141 -176 0 -217 8 -253 52 l-26 31 3 164
3 165 33 29 32 29 195 0 195 0 0 -40z m538 28 c9 -9 12 -75 12 -235 l0 -223
-40 0 -40 0 0 60 0 60 -150 0 -150 0 0 -61 0 -60 -42 3 -43 3 0 140 c0 112 4
150 18 187 21 53 83 113 132 127 48 14 289 13 303 -1z m532 -28 l0 -40 -90 0
-90 0 -2 -192 -3 -193 -40 0 -40 0 -3 193 -2 192 -95 0 -95 0 0 40 0 40 230 0
230 0 0 -40z m490 0 l0 -40 -170 0 -171 0 3 -147 3 -148 168 -3 168 -2 -3 -43
-3 -42 -170 0 c-250 0 -255 5 -255 265 0 92 4 170 10 181 10 18 23 19 215 19
l205 0 0 -40z m-40 -190 l0 -40 -135 0 -135 0 0 40 0 40 135 0 135 0 0 -40z"/>
<path d="M1929 2682 c-30 -27 -32 -34 -36 -108 -7 -136 28 -172 170 -173 126
-1 167 36 167 152 0 134 -25 157 -169 157 -96 0 -102 -1 -132 -28z"/>
<path d="M3583 2691 c-51 -23 -74 -57 -81 -116 l-5 -45 152 0 151 0 0 90 0 90
-87 0 c-65 0 -99 -5 -130 -19z"/>
</g>
</svg>
