<svg id="svg" version="1.1" xmlns="http://www.w3.org/2000/svg" xmlns:xlink="http://www.w3.org/1999/xlink" width="400" height="408.1062194269741" viewBox="0, 0, 400,408.1062194269741"><g id="svgg"><path id="path0" d="M176.799 25.473 C 141.903 27.734,111.870 38.606,85.551 58.504 C 63.644 75.067,53.423 89.147,48.781 109.154 C 46.000 121.144,45.558 122.285,41.046 129.140 C 22.488 157.334,16.157 190.993,21.411 233.543 C 24.480 258.405,29.355 274.264,37.165 284.798 C 39.897 288.482,49.304 298.010,51.105 298.917 C 57.062 301.915,55.724 293.601,47.940 279.245 C 45.478 274.705,43.606 270.358,42.400 266.378 C 33.496 236.990,34.170 184.980,43.686 167.080 C 44.522 165.507,46.373 162.020,47.799 159.329 C 51.992 151.416,52.730 150.422,59.521 143.536 C 68.491 134.439,71.251 130.603,73.373 124.281 C 76.068 116.254,72.161 114.429,62.573 119.238 C 57.377 121.843,55.625 121.526,55.625 117.980 C 55.625 109.860,69.831 91.903,84.414 81.589 C 93.871 74.900,101.335 71.302,113.941 67.355 C 121.341 65.038,127.652 62.810,139.483 58.340 C 173.949 45.316,192.278 42.198,220.266 44.599 C 252.245 47.341,296.795 59.369,315.478 70.305 C 325.512 76.178,329.676 81.116,332.226 90.167 C 332.777 92.120,333.461 94.235,333.747 94.867 C 334.033 95.499,334.474 97.086,334.726 98.393 C 336.846 109.367,344.186 120.635,347.948 118.690 C 351.966 116.612,351.406 94.530,347.023 82.179 C 339.203 60.148,314.852 45.443,268.861 34.980 C 233.854 27.015,202.682 23.796,176.799 25.473 M136.299 96.156 C 114.640 98.868,98.693 116.824,91.985 146.052 C 89.404 157.299,87.192 164.557,80.997 182.110 C 68.670 217.036,67.173 230.687,73.824 247.491 C 80.806 265.131,103.067 286.504,120.839 292.632 C 133.156 296.878,141.554 295.950,160.978 288.195 C 165.529 286.378,170.762 284.361,172.607 283.714 C 189.338 277.844,210.502 262.106,226.168 243.885 C 236.279 232.125,242.839 219.016,239.833 216.577 C 237.243 214.476,227.782 220.261,222.082 227.431 C 220.853 228.978,218.274 232.237,216.352 234.673 C 192.918 264.376,166.677 271.850,129.463 259.422 C 100.058 249.602,85.177 231.704,89.999 211.957 C 90.448 210.120,91.836 204.225,93.085 198.858 C 102.191 159.704,108.556 141.218,117.427 128.162 C 130.861 108.390,144.133 110.064,183.561 136.503 C 209.970 154.212,214.969 156.186,227.952 154.033 C 239.906 152.051,239.102 149.236,223.899 139.835 C 213.215 133.228,202.775 127.317,184.766 117.678 C 166.516 107.910,159.385 103.848,154.462 100.417 C 149.356 96.858,142.862 95.335,136.299 96.156 M256.243 99.799 C 245.332 100.448,233.863 101.971,231.488 103.087 C 228.287 104.591,231.102 106.016,241.789 108.303 C 272.324 114.836,291.684 124.681,311.074 143.536 C 330.250 162.183,330.933 174.667,314.364 203.634 C 303.428 222.753,278.690 241.044,218.728 274.348 C 211.041 278.617,202.519 283.413,199.790 285.006 C 197.061 286.598,190.017 290.499,184.137 293.673 C 159.573 306.933,148.756 313.441,138.505 321.129 C 120.132 334.907,112.842 346.397,115.184 357.888 C 119.347 378.318,139.818 392.352,162.809 390.540 C 174.181 389.643,188.766 384.614,193.762 379.867 C 197.339 376.468,194.595 375.537,186.723 377.479 C 172.514 380.984,160.539 380.465,153.226 376.028 C 150.762 374.533,143.695 368.724,140.739 365.764 C 130.220 355.232,133.842 352.405,216.492 306.638 C 305.637 257.275,313.607 251.818,330.472 228.589 C 356.207 193.143,357.320 159.036,333.582 133.289 C 310.362 108.104,286.963 97.971,256.243 99.799 M277.848 155.162 C 264.428 156.892,244.065 165.896,228.279 177.078 C 215.349 186.237,224.878 185.879,247.100 176.369 C 261.254 170.312,265.982 169.004,273.795 168.985 C 290.256 168.945,296.148 178.447,286.880 190.088 C 283.935 193.787,280.654 196.177,276.728 197.485 C 269.407 199.923,277.109 204.084,285.081 201.997 C 292.940 199.940,304.955 189.739,309.026 181.667 C 316.463 166.919,299.369 152.387,277.848 155.162 M197.890 337.391 C 187.652 338.980,186.143 348.719,194.815 357.233 C 199.375 361.709,199.917 361.924,208.526 362.665 C 232.257 364.708,251.007 362.096,263.638 354.988 C 282.887 344.156,279.200 336.918,257.306 342.556 C 255.305 343.071,251.150 344.253,248.073 345.182 C 235.237 349.056,232.958 348.791,215.747 341.420 C 207.684 337.967,202.181 336.725,197.890 337.391 " stroke="none" fill="#dbfcc3" fill-rule="evenodd"></path><path id="path1" d="M177.484 64.937 C 171.245 66.687,168.672 73.882,171.374 82.029 C 176.708 98.118,202.134 113.192,222.924 112.592 C 233.045 112.300,230.966 108.919,216.581 102.275 C 202.408 95.728,195.095 88.158,189.881 74.635 C 186.988 67.131,182.416 63.555,177.484 64.937 M358.824 136.345 C 356.894 136.767,357.795 141.767,361.668 152.122 C 367.783 168.475,367.752 178.850,361.546 193.431 C 357.677 202.520,359.021 209.082,365.122 210.894 C 375.545 213.989,385.000 200.730,384.253 184.067 C 383.774 173.394,379.928 160.525,374.563 151.641 C 369.714 143.614,361.609 135.736,358.824 136.345 M151.482 163.236 C 147.116 165.544,138.878 179.225,137.795 185.966 C 135.173 202.289,153.232 221.678,175.201 226.127 C 198.747 230.895,220.033 211.795,213.784 191.506 C 210.352 180.361,196.078 165.830,186.873 164.111 C 180.857 162.987,182.647 168.276,191.422 177.554 C 198.186 184.705,199.189 192.000,194.655 201.059 C 187.705 214.942,176.252 215.632,163.508 202.937 C 154.404 193.868,151.114 184.307,153.695 174.423 C 155.897 165.993,154.986 161.384,151.482 163.236 M60.270 241.534 C 56.753 244.300,56.278 258.778,59.408 267.785 C 65.605 285.613,75.557 302.914,84.330 311.107 C 97.737 323.627,119.614 325.241,116.429 313.475 C 115.065 308.436,111.850 305.143,100.070 296.723 C 81.808 283.669,76.956 277.571,71.532 260.857 C 68.409 251.233,67.562 248.827,66.544 246.681 C 64.261 241.868,62.099 240.095,60.270 241.534 M355.330 249.610 C 352.075 250.782,348.815 253.366,339.924 261.820 C 321.179 279.645,307.621 287.653,270.264 302.964 C 227.820 320.360,220.396 325.684,237.596 326.389 C 263.161 327.436,279.010 320.713,316.841 292.773 C 325.575 286.323,329.935 283.249,335.709 279.471 C 346.648 272.314,353.989 264.845,357.857 256.938 C 360.794 250.934,359.785 248.008,355.330 249.610 " stroke="none" fill="#049404" fill-rule="evenodd"></path><path id="path2" d="M190.915 0.276 C 154.009 1.871,121.271 11.986,93.781 30.287 C 67.161 48.009,54.508 58.810,44.292 72.537 C 37.918 81.101,36.159 84.749,30.905 100.315 C 26.549 113.217,26.157 114.184,20.749 125.367 C 3.553 160.927,-0.836 179.494,0.252 212.079 C 1.663 254.323,9.919 279.780,29.737 302.991 C 35.971 310.292,41.415 315.197,52.970 323.922 C 63.555 331.916,67.751 335.352,73.235 340.521 C 78.006 345.017,80.002 347.067,94.807 362.683 C 125.587 395.150,144.198 406.115,171.436 407.832 C 181.349 408.457,184.308 407.278,196.620 397.804 C 212.124 385.873,219.059 382.941,233.124 382.371 C 242.542 381.989,247.797 381.197,254.647 379.125 C 280.180 371.405,301.737 348.646,316.291 314.046 C 319.243 307.026,327.617 298.879,343.086 287.974 C 367.074 271.064,373.201 263.709,377.500 246.660 C 379.349 239.327,380.362 237.036,388.469 221.857 C 398.859 202.404,400.194 198.336,399.905 187.002 C 399.314 163.811,396.336 153.272,382.521 125.495 C 374.911 110.192,374.339 108.656,370.516 93.222 C 365.130 71.479,362.804 66.964,349.772 52.946 C 316.733 17.406,256.512 -2.560,190.915 0.276 M208.386 25.433 C 227.185 26.772,248.028 30.021,269.322 34.929 C 320.866 46.810,344.952 63.726,349.538 91.265 C 351.562 103.423,351.108 115.674,348.531 118.418 C 345.101 122.069,336.539 109.687,334.569 98.226 C 334.386 97.165,334.008 95.793,333.727 95.178 C 333.447 94.563,332.786 92.551,332.258 90.706 C 330.321 83.932,329.039 81.617,324.969 77.547 C 315.858 68.437,296.925 60.527,265.450 52.682 C 231.208 44.146,204.740 42.107,180.573 46.144 C 169.467 47.999,159.034 51.132,139.483 58.483 C 127.256 63.081,119.208 65.894,112.028 68.081 C 90.312 74.693,69.471 90.636,59.289 108.426 C 53.264 118.952,54.525 123.047,62.573 119.086 C 72.501 114.200,76.291 116.103,73.420 124.534 C 71.274 130.837,68.168 135.092,59.247 143.955 C 52.753 150.406,52.380 150.937,46.451 162.124 C 43.404 167.874,41.949 170.945,41.225 173.158 C 35.698 190.047,34.726 226.502,39.130 251.712 C 41.220 263.673,43.554 270.808,48.227 279.525 C 55.057 292.264,56.819 299.651,53.027 299.651 C 50.086 299.651,37.834 287.023,33.605 279.633 C 22.891 260.910,16.840 216.788,20.711 185.604 C 23.418 163.790,29.956 145.621,41.229 128.581 C 45.415 122.254,45.824 121.235,48.067 111.530 C 52.854 90.826,60.563 78.901,79.245 63.301 C 113.711 34.522,157.155 21.783,208.386 25.433 M182.740 65.412 C 185.628 66.688,187.996 69.746,189.881 74.635 C 195.095 88.158,202.408 95.728,216.581 102.275 C 230.966 108.919,233.045 112.300,222.924 112.592 C 199.258 113.275,171.446 94.392,170.311 76.871 C 169.767 68.473,176.214 62.528,182.740 65.412 M147.400 96.830 C 150.499 97.752,151.108 98.067,156.019 101.283 C 161.449 104.840,167.241 108.137,181.206 115.620 C 201.678 126.590,208.609 130.470,219.881 137.270 C 238.565 148.540,240.528 151.659,230.251 153.752 C 215.444 156.768,211.202 155.167,181.691 135.415 C 158.653 119.996,148.016 115.140,137.247 115.129 C 120.980 115.112,108.798 135.662,97.042 182.949 C 94.602 192.764,89.732 213.466,89.382 215.514 C 86.083 234.803,105.932 253.698,137.945 261.742 C 173.128 270.582,195.052 262.231,219.323 230.746 C 230.401 216.374,243.825 210.554,240.091 221.742 C 233.212 242.348,199.183 274.051,174.004 283.311 C 172.006 284.046,166.471 286.188,161.705 288.071 C 141.817 295.930,133.606 296.953,121.636 293.064 C 105.326 287.766,83.624 268.196,75.468 251.433 C 67.032 234.095,67.897 219.007,79.156 187.032 C 86.854 165.171,89.061 158.066,91.713 146.611 C 95.756 129.147,101.481 117.826,110.882 108.708 C 118.335 101.479,125.185 98.006,135.849 96.046 C 138.051 95.641,144.987 96.112,147.400 96.830 M272.349 99.814 C 293.840 101.727,310.987 110.550,329.858 129.406 C 339.884 139.424,344.421 146.132,347.728 155.829 C 356.908 182.752,344.457 217.581,315.548 245.844 C 302.948 258.162,289.977 266.132,215.234 307.479 C 135.494 351.590,130.736 355.233,140.114 364.994 C 142.347 367.319,149.927 373.732,152.340 375.339 C 159.148 379.871,170.569 380.849,183.648 378.020 C 185.416 377.638,187.994 377.083,189.378 376.786 C 198.541 374.824,197.353 379.169,187.421 383.944 C 160.347 396.962,131.946 390.807,119.317 369.183 C 105.406 345.365,120.148 328.086,183.648 293.787 C 189.413 290.673,196.583 286.708,199.581 284.976 C 202.579 283.245,211.195 278.400,218.728 274.210 C 281.025 239.563,303.986 222.321,315.307 201.689 C 330.977 173.131,329.746 160.596,309.453 142.057 C 289.185 123.540,271.650 114.830,241.789 108.447 C 223.169 104.467,227.008 101.710,253.809 99.818 C 258.664 99.475,268.518 99.473,272.349 99.814 M362.805 138.049 C 377.475 148.732,387.719 177.474,383.192 195.248 C 380.311 206.557,372.703 213.145,365.122 210.894 C 359.021 209.082,357.677 202.520,361.546 193.431 C 367.752 178.850,367.783 168.475,361.668 152.122 C 356.250 137.634,356.582 133.518,362.805 138.049 M290.676 155.286 C 303.248 157.676,312.640 167.841,310.764 177.027 C 308.903 186.138,294.894 199.769,284.976 202.120 C 276.509 204.127,268.926 199.745,276.730 197.355 C 280.650 196.155,286.148 191.652,288.429 187.774 C 294.265 177.852,290.055 170.687,277.455 169.102 C 269.762 168.133,262.381 169.927,247.240 176.446 C 235.852 181.349,228.781 183.633,224.779 183.701 C 220.197 183.779,222.130 181.030,230.608 175.407 C 254.338 159.670,275.843 152.466,290.676 155.286 M154.003 163.227 C 155.232 164.456,155.107 169.021,153.695 174.423 C 151.114 184.307,154.404 193.868,163.508 202.937 C 176.252 215.632,187.705 214.942,194.655 201.059 C 199.189 192.000,198.186 184.705,191.422 177.554 C 182.647 168.276,180.857 162.987,186.873 164.111 C 196.078 165.830,210.352 180.361,213.784 191.506 C 220.033 211.795,198.747 230.895,175.201 226.127 C 153.232 221.678,135.173 202.289,137.795 185.966 C 139.308 176.550,150.967 160.192,154.003 163.227 M62.815 241.501 C 64.009 242.230,65.250 243.953,66.544 246.681 C 67.562 248.827,68.409 251.233,71.532 260.857 C 76.956 277.571,81.808 283.669,100.070 296.723 C 111.850 305.143,115.065 308.436,116.429 313.475 C 119.614 325.241,97.737 323.627,84.330 311.107 C 75.557 302.914,65.605 285.613,59.408 267.785 C 55.271 255.881,57.551 238.292,62.815 241.501 M358.767 249.663 C 360.015 250.645,359.699 253.173,357.857 256.938 C 353.989 264.845,346.648 272.314,335.709 279.471 C 329.935 283.249,325.575 286.323,316.841 292.773 C 279.010 320.713,263.161 327.436,237.596 326.389 C 220.396 325.684,227.820 320.360,270.264 302.964 C 307.621 287.653,321.179 279.645,339.924 261.820 C 351.713 250.610,356.249 247.683,358.767 249.663 M206.985 338.076 C 208.521 338.484,212.924 340.118,216.769 341.709 C 233.833 348.768,235.243 348.920,247.939 345.083 C 259.142 341.696,264.962 340.460,269.699 340.463 C 286.534 340.473,267.847 357.050,246.090 361.407 C 234.663 363.695,208.868 364.022,201.258 361.976 C 198.834 361.324,193.912 357.191,191.801 354.034 C 184.357 342.904,192.586 334.256,206.985 338.076 " stroke="none" fill="#7cfb3c" fill-rule="evenodd"></path><path id="path3" d="M184.137 25.075 C 184.483 25.142,185.049 25.142,185.395 25.075 C 185.741 25.008,185.458 24.954,184.766 24.954 C 184.074 24.954,183.791 25.008,184.137 25.075 M197.418 25.078 C 197.843 25.143,198.472 25.141,198.816 25.074 C 199.160 25.008,198.812 24.956,198.043 24.958 C 197.275 24.960,196.993 25.014,197.418 25.078 M204.270 44.090 C 204.928 44.149,205.934 44.149,206.506 44.089 C 207.079 44.029,206.541 43.980,205.311 43.981 C 204.081 43.982,203.613 44.031,204.270 44.090 M69.596 72.048 L 67.226 74.493 69.672 72.124 C 71.017 70.820,72.117 69.720,72.117 69.678 C 72.117 69.474,71.796 69.776,69.596 72.048 M350.589 102.865 C 350.589 103.403,350.646 103.623,350.717 103.354 C 350.787 103.085,350.787 102.645,350.717 102.376 C 350.646 102.107,350.589 102.327,350.589 102.865 M282.678 154.783 C 283.413 154.841,284.545 154.840,285.194 154.781 C 285.842 154.723,285.241 154.676,283.857 154.676 C 282.474 154.677,281.943 154.725,282.678 154.783 M220.199 155.054 C 220.547 155.121,221.050 155.119,221.317 155.049 C 221.584 154.979,221.300 154.924,220.685 154.927 C 220.070 154.930,219.851 154.988,220.199 155.054 M291.050 179.734 C 291.050 180.273,291.108 180.493,291.178 180.224 C 291.248 179.955,291.248 179.514,291.178 179.245 C 291.108 178.976,291.050 179.196,291.050 179.734 M284.678 192.383 L 283.857 193.291 284.766 192.470 C 285.266 192.019,285.674 191.610,285.674 191.562 C 285.674 191.346,285.444 191.536,284.678 192.383 M88.959 219.567 C 88.962 220.182,89.020 220.400,89.087 220.053 C 89.153 219.705,89.151 219.202,89.081 218.935 C 89.011 218.667,88.956 218.952,88.959 219.567 M218.163 252.481 L 215.653 255.066 218.239 252.556 C 219.661 251.176,220.825 250.013,220.825 249.971 C 220.825 249.768,220.494 250.079,218.163 252.481 M90.846 272.117 C 92.146 273.424,93.272 274.493,93.349 274.493 C 93.426 274.493,92.425 273.424,91.125 272.117 C 89.825 270.811,88.699 269.741,88.622 269.741 C 88.545 269.741,89.546 270.811,90.846 272.117 M54.852 296.855 C 54.852 297.393,54.909 297.614,54.980 297.345 C 55.050 297.075,55.050 296.635,54.980 296.366 C 54.909 296.097,54.852 296.317,54.852 296.855 M140.461 365.618 C 141.062 366.233,141.616 366.737,141.693 366.737 C 141.770 366.737,141.341 366.233,140.741 365.618 C 140.140 365.003,139.586 364.500,139.509 364.500 C 139.432 364.500,139.861 365.003,140.461 365.618 " stroke="none" fill="#9cfc6c" fill-rule="evenodd"></path><path id="path4" d="M188.624 25.086 C 190.208 25.136,192.724 25.136,194.215 25.086 C 195.706 25.036,194.410 24.995,191.335 24.995 C 188.260 24.995,187.040 25.036,188.624 25.086 M203.284 25.350 C 203.553 25.420,203.994 25.420,204.263 25.350 C 204.532 25.280,204.312 25.222,203.774 25.222 C 203.235 25.222,203.015 25.280,203.284 25.350 M200.913 44.088 C 201.416 44.150,202.171 44.149,202.591 44.085 C 203.011 44.021,202.600 43.970,201.677 43.972 C 200.755 43.974,200.411 44.026,200.913 44.088 M208.176 44.088 C 208.676 44.150,209.493 44.150,209.993 44.088 C 210.493 44.026,210.084 43.975,209.085 43.975 C 208.085 43.975,207.676 44.026,208.176 44.088 M258.773 99.709 C 259.121 99.775,259.624 99.773,259.891 99.703 C 260.159 99.633,259.874 99.578,259.259 99.581 C 258.644 99.584,258.426 99.642,258.773 99.709 M267.718 99.709 C 268.066 99.775,268.569 99.773,268.836 99.703 C 269.103 99.633,268.819 99.578,268.204 99.581 C 267.589 99.584,267.370 99.642,267.718 99.709 M350.614 105.381 C 350.614 106.380,350.664 106.789,350.726 106.289 C 350.788 105.790,350.788 104.972,350.726 104.472 C 350.664 103.973,350.614 104.382,350.614 105.381 M350.604 109.154 C 350.606 109.923,350.660 110.204,350.725 109.780 C 350.789 109.355,350.787 108.726,350.721 108.382 C 350.655 108.038,350.602 108.386,350.604 109.154 M70.231 116.475 C 70.500 116.545,70.940 116.545,71.209 116.475 C 71.478 116.405,71.258 116.347,70.720 116.347 C 70.182 116.347,69.962 116.405,70.231 116.475 M342.697 116.370 C 342.697 116.418,343.106 116.827,343.606 117.278 L 344.514 118.099 343.693 117.191 C 342.928 116.344,342.697 116.154,342.697 116.370 M74.139 120.196 C 74.139 120.734,74.196 120.954,74.267 120.685 C 74.337 120.416,74.337 119.976,74.267 119.706 C 74.196 119.437,74.139 119.658,74.139 120.196 M326.205 125.874 C 326.205 125.922,326.614 126.331,327.114 126.782 L 328.022 127.603 327.201 126.695 C 326.436 125.848,326.205 125.658,326.205 125.874 M331.796 131.464 C 331.796 131.512,332.205 131.921,332.704 132.373 L 333.613 133.194 332.792 132.285 C 332.027 131.438,331.796 131.248,331.796 131.464 M350.628 174.423 C 350.628 176.038,350.674 176.698,350.730 175.891 C 350.787 175.084,350.787 173.763,350.730 172.956 C 350.674 172.149,350.628 172.809,350.628 174.423 M302.157 190.566 L 300.629 192.173 302.236 190.645 C 303.729 189.226,303.972 188.959,303.764 188.959 C 303.720 188.959,302.997 189.682,302.157 190.566 M19.632 198.463 C 19.632 199.001,19.689 199.221,19.759 198.952 C 19.830 198.683,19.830 198.242,19.759 197.973 C 19.689 197.704,19.632 197.925,19.632 198.463 M36.176 216.212 C 36.176 219.287,36.217 220.583,36.267 219.092 C 36.317 217.602,36.317 215.086,36.267 213.502 C 36.217 211.918,36.176 213.138,36.176 216.212 M19.632 214.675 C 19.632 215.213,19.689 215.433,19.759 215.164 C 19.830 214.895,19.830 214.455,19.759 214.186 C 19.689 213.917,19.632 214.137,19.632 214.675 M69.957 225.577 C 69.957 226.268,70.012 226.551,70.078 226.205 C 70.145 225.860,70.145 225.294,70.078 224.948 C 70.012 224.602,69.957 224.885,69.957 225.577 M69.957 229.490 C 69.957 230.182,70.012 230.465,70.078 230.119 C 70.145 229.773,70.145 229.207,70.078 228.861 C 70.012 228.515,69.957 228.798,69.957 229.490 M189.029 346.191 C 189.032 346.806,189.090 347.025,189.156 346.677 C 189.223 346.330,189.221 345.827,189.151 345.559 C 189.081 345.292,189.026 345.577,189.029 346.191 M193.431 356.202 C 193.431 356.250,193.840 356.659,194.340 357.111 L 195.248 357.932 194.427 357.023 C 193.662 356.176,193.431 355.986,193.431 356.202 M216.565 363.300 C 216.913 363.367,217.416 363.365,217.683 363.295 C 217.950 363.225,217.666 363.170,217.051 363.173 C 216.436 363.176,216.217 363.234,216.565 363.300 M228.585 363.300 C 228.932 363.367,229.436 363.365,229.703 363.295 C 229.970 363.225,229.686 363.170,229.071 363.173 C 228.456 363.176,228.237 363.234,228.585 363.300 M192.523 376.438 C 192.869 376.504,193.435 376.504,193.781 376.438 C 194.126 376.371,193.843 376.317,193.152 376.317 C 192.460 376.317,192.177 376.371,192.523 376.438 M167.086 379.792 C 167.432 379.859,167.998 379.859,168.344 379.792 C 168.690 379.725,168.407 379.671,167.715 379.671 C 167.023 379.671,166.740 379.725,167.086 379.792 M170.440 379.792 C 170.786 379.859,171.352 379.859,171.698 379.792 C 172.044 379.725,171.761 379.671,171.069 379.671 C 170.377 379.671,170.094 379.725,170.440 379.792 " stroke="none" fill="#acfc7c" fill-rule="evenodd"></path></g></svg>